<mxfile host="app.diagrams.net" modified="2022-12-05T17:35:04.689Z" agent="5.0 (X11; Linux x86_64) AppleWebKit/537.36 (KHTML, like Gecko) Chrome/106.0.0.0 Safari/537.36" etag="YpM21QWVcpRjHhJEIEz0" version="20.6.0" type="github">
  <diagram id="UEEJeeri9Iz10oDy9NeJ" name="Страница 1">
    <mxGraphModel dx="1961" dy="704" grid="1" gridSize="10" guides="1" tooltips="1" connect="1" arrows="1" fold="1" page="1" pageScale="1" pageWidth="827" pageHeight="1169" math="0" shadow="0">
      <root>
        <mxCell id="0" />
        <mxCell id="1" parent="0" />
        <mxCell id="TdXXtB4wiW-Buo-MOeaE-6" style="edgeStyle=orthogonalEdgeStyle;rounded=0;orthogonalLoop=1;jettySize=auto;html=1;entryX=0.45;entryY=0;entryDx=0;entryDy=0;entryPerimeter=0;" parent="1" source="TdXXtB4wiW-Buo-MOeaE-3" target="TdXXtB4wiW-Buo-MOeaE-4" edge="1">
          <mxGeometry relative="1" as="geometry" />
        </mxCell>
        <mxCell id="TdXXtB4wiW-Buo-MOeaE-7" style="edgeStyle=orthogonalEdgeStyle;rounded=0;orthogonalLoop=1;jettySize=auto;html=1;" parent="1" source="TdXXtB4wiW-Buo-MOeaE-3" target="TdXXtB4wiW-Buo-MOeaE-5" edge="1">
          <mxGeometry relative="1" as="geometry" />
        </mxCell>
        <mxCell id="TdXXtB4wiW-Buo-MOeaE-3" value="Partial Payment" style="rounded=1;whiteSpace=wrap;html=1;fillColor=#dae8fc;strokeColor=#6c8ebf;" parent="1" vertex="1">
          <mxGeometry x="510" y="20" width="120" height="30" as="geometry" />
        </mxCell>
        <mxCell id="TdXXtB4wiW-Buo-MOeaE-14" style="edgeStyle=orthogonalEdgeStyle;rounded=0;orthogonalLoop=1;jettySize=auto;html=1;entryX=0.5;entryY=0;entryDx=0;entryDy=0;" parent="1" source="TdXXtB4wiW-Buo-MOeaE-4" target="TdXXtB4wiW-Buo-MOeaE-8" edge="1">
          <mxGeometry relative="1" as="geometry" />
        </mxCell>
        <mxCell id="TdXXtB4wiW-Buo-MOeaE-15" style="edgeStyle=orthogonalEdgeStyle;rounded=0;orthogonalLoop=1;jettySize=auto;html=1;entryX=0.5;entryY=0;entryDx=0;entryDy=0;" parent="1" source="TdXXtB4wiW-Buo-MOeaE-4" target="TdXXtB4wiW-Buo-MOeaE-9" edge="1">
          <mxGeometry relative="1" as="geometry" />
        </mxCell>
        <mxCell id="TdXXtB4wiW-Buo-MOeaE-16" style="edgeStyle=orthogonalEdgeStyle;rounded=0;orthogonalLoop=1;jettySize=auto;html=1;entryX=0.5;entryY=0;entryDx=0;entryDy=0;" parent="1" source="TdXXtB4wiW-Buo-MOeaE-4" target="TdXXtB4wiW-Buo-MOeaE-10" edge="1">
          <mxGeometry relative="1" as="geometry" />
        </mxCell>
        <mxCell id="TdXXtB4wiW-Buo-MOeaE-17" style="edgeStyle=orthogonalEdgeStyle;rounded=0;orthogonalLoop=1;jettySize=auto;html=1;entryX=0.5;entryY=0;entryDx=0;entryDy=0;" parent="1" source="TdXXtB4wiW-Buo-MOeaE-4" target="TdXXtB4wiW-Buo-MOeaE-10" edge="1">
          <mxGeometry relative="1" as="geometry" />
        </mxCell>
        <mxCell id="TdXXtB4wiW-Buo-MOeaE-4" value="Individual" style="rounded=1;whiteSpace=wrap;html=1;fillColor=#fff2cc;strokeColor=#d6b656;" parent="1" vertex="1">
          <mxGeometry x="130" y="120" width="120" height="30" as="geometry" />
        </mxCell>
        <mxCell id="TdXXtB4wiW-Buo-MOeaE-18" style="edgeStyle=orthogonalEdgeStyle;rounded=0;orthogonalLoop=1;jettySize=auto;html=1;entryX=0.417;entryY=0;entryDx=0;entryDy=0;entryPerimeter=0;" parent="1" source="TdXXtB4wiW-Buo-MOeaE-5" target="TdXXtB4wiW-Buo-MOeaE-11" edge="1">
          <mxGeometry relative="1" as="geometry" />
        </mxCell>
        <mxCell id="TdXXtB4wiW-Buo-MOeaE-20" style="edgeStyle=orthogonalEdgeStyle;rounded=0;orthogonalLoop=1;jettySize=auto;html=1;entryX=0.5;entryY=0;entryDx=0;entryDy=0;" parent="1" source="TdXXtB4wiW-Buo-MOeaE-5" target="TdXXtB4wiW-Buo-MOeaE-12" edge="1">
          <mxGeometry relative="1" as="geometry">
            <Array as="points">
              <mxPoint x="870" y="170" />
              <mxPoint x="870" y="200" />
              <mxPoint x="840" y="200" />
            </Array>
          </mxGeometry>
        </mxCell>
        <mxCell id="TdXXtB4wiW-Buo-MOeaE-21" style="edgeStyle=orthogonalEdgeStyle;rounded=0;orthogonalLoop=1;jettySize=auto;html=1;entryX=0.5;entryY=0;entryDx=0;entryDy=0;" parent="1" source="TdXXtB4wiW-Buo-MOeaE-5" target="TdXXtB4wiW-Buo-MOeaE-13" edge="1">
          <mxGeometry relative="1" as="geometry">
            <Array as="points">
              <mxPoint x="1030" y="180" />
              <mxPoint x="1030" y="200" />
              <mxPoint x="1040" y="200" />
            </Array>
          </mxGeometry>
        </mxCell>
        <mxCell id="TdXXtB4wiW-Buo-MOeaE-5" value="Juridical" style="rounded=1;whiteSpace=wrap;html=1;fillColor=#d5e8d4;strokeColor=#82b366;" parent="1" vertex="1">
          <mxGeometry x="890" y="140" width="120" height="30" as="geometry" />
        </mxCell>
        <mxCell id="TdXXtB4wiW-Buo-MOeaE-34" style="edgeStyle=orthogonalEdgeStyle;rounded=0;orthogonalLoop=1;jettySize=auto;html=1;entryX=0.5;entryY=0;entryDx=0;entryDy=0;" parent="1" source="TdXXtB4wiW-Buo-MOeaE-8" target="TdXXtB4wiW-Buo-MOeaE-22" edge="1">
          <mxGeometry relative="1" as="geometry" />
        </mxCell>
        <mxCell id="TdXXtB4wiW-Buo-MOeaE-35" style="edgeStyle=orthogonalEdgeStyle;rounded=0;orthogonalLoop=1;jettySize=auto;html=1;entryX=0.5;entryY=0;entryDx=0;entryDy=0;" parent="1" source="TdXXtB4wiW-Buo-MOeaE-8" target="TdXXtB4wiW-Buo-MOeaE-23" edge="1">
          <mxGeometry relative="1" as="geometry" />
        </mxCell>
        <mxCell id="TdXXtB4wiW-Buo-MOeaE-8" value="Standard" style="rounded=1;whiteSpace=wrap;html=1;fillColor=#f5f5f5;fontColor=#333333;strokeColor=#666666;" parent="1" vertex="1">
          <mxGeometry x="20" y="220" width="80" height="40" as="geometry" />
        </mxCell>
        <mxCell id="TdXXtB4wiW-Buo-MOeaE-36" style="edgeStyle=orthogonalEdgeStyle;rounded=0;orthogonalLoop=1;jettySize=auto;html=1;entryX=0.5;entryY=0;entryDx=0;entryDy=0;" parent="1" source="TdXXtB4wiW-Buo-MOeaE-9" target="TdXXtB4wiW-Buo-MOeaE-24" edge="1">
          <mxGeometry relative="1" as="geometry" />
        </mxCell>
        <mxCell id="TdXXtB4wiW-Buo-MOeaE-37" style="edgeStyle=orthogonalEdgeStyle;rounded=0;orthogonalLoop=1;jettySize=auto;html=1;entryX=0.5;entryY=0;entryDx=0;entryDy=0;" parent="1" source="TdXXtB4wiW-Buo-MOeaE-9" target="TdXXtB4wiW-Buo-MOeaE-29" edge="1">
          <mxGeometry relative="1" as="geometry" />
        </mxCell>
        <mxCell id="TdXXtB4wiW-Buo-MOeaE-9" value="Month payment reduction" style="rounded=1;whiteSpace=wrap;html=1;fillColor=#f8cecc;strokeColor=#b85450;" parent="1" vertex="1">
          <mxGeometry x="190" y="220" width="110" height="40" as="geometry" />
        </mxCell>
        <mxCell id="TdXXtB4wiW-Buo-MOeaE-38" style="edgeStyle=orthogonalEdgeStyle;rounded=0;orthogonalLoop=1;jettySize=auto;html=1;entryX=0.5;entryY=0;entryDx=0;entryDy=0;" parent="1" source="TdXXtB4wiW-Buo-MOeaE-10" target="TdXXtB4wiW-Buo-MOeaE-25" edge="1">
          <mxGeometry relative="1" as="geometry" />
        </mxCell>
        <mxCell id="TdXXtB4wiW-Buo-MOeaE-39" style="edgeStyle=orthogonalEdgeStyle;rounded=0;orthogonalLoop=1;jettySize=auto;html=1;entryX=0.5;entryY=0;entryDx=0;entryDy=0;" parent="1" source="TdXXtB4wiW-Buo-MOeaE-10" target="TdXXtB4wiW-Buo-MOeaE-30" edge="1">
          <mxGeometry relative="1" as="geometry" />
        </mxCell>
        <mxCell id="TdXXtB4wiW-Buo-MOeaE-10" value="Duration reduction" style="rounded=1;whiteSpace=wrap;html=1;fillColor=#e1d5e7;strokeColor=#9673a6;" parent="1" vertex="1">
          <mxGeometry x="350" y="220" width="100" height="40" as="geometry" />
        </mxCell>
        <mxCell id="TdXXtB4wiW-Buo-MOeaE-40" style="edgeStyle=orthogonalEdgeStyle;rounded=0;orthogonalLoop=1;jettySize=auto;html=1;entryX=0.5;entryY=0;entryDx=0;entryDy=0;" parent="1" source="TdXXtB4wiW-Buo-MOeaE-11" target="TdXXtB4wiW-Buo-MOeaE-26" edge="1">
          <mxGeometry relative="1" as="geometry" />
        </mxCell>
        <mxCell id="TdXXtB4wiW-Buo-MOeaE-41" style="edgeStyle=orthogonalEdgeStyle;rounded=0;orthogonalLoop=1;jettySize=auto;html=1;entryX=0.5;entryY=0;entryDx=0;entryDy=0;" parent="1" source="TdXXtB4wiW-Buo-MOeaE-11" target="TdXXtB4wiW-Buo-MOeaE-31" edge="1">
          <mxGeometry relative="1" as="geometry" />
        </mxCell>
        <mxCell id="TdXXtB4wiW-Buo-MOeaE-11" value="Standard" style="rounded=1;whiteSpace=wrap;html=1;fillColor=#f5f5f5;fontColor=#333333;strokeColor=#666666;" parent="1" vertex="1">
          <mxGeometry x="580" y="220" width="90" height="30" as="geometry" />
        </mxCell>
        <mxCell id="TdXXtB4wiW-Buo-MOeaE-42" style="edgeStyle=orthogonalEdgeStyle;rounded=0;orthogonalLoop=1;jettySize=auto;html=1;entryX=0.5;entryY=0;entryDx=0;entryDy=0;" parent="1" source="TdXXtB4wiW-Buo-MOeaE-12" target="TdXXtB4wiW-Buo-MOeaE-27" edge="1">
          <mxGeometry relative="1" as="geometry" />
        </mxCell>
        <mxCell id="TdXXtB4wiW-Buo-MOeaE-43" style="edgeStyle=orthogonalEdgeStyle;rounded=0;orthogonalLoop=1;jettySize=auto;html=1;entryX=0.5;entryY=0;entryDx=0;entryDy=0;" parent="1" source="TdXXtB4wiW-Buo-MOeaE-12" target="TdXXtB4wiW-Buo-MOeaE-32" edge="1">
          <mxGeometry relative="1" as="geometry" />
        </mxCell>
        <mxCell id="TdXXtB4wiW-Buo-MOeaE-12" value="Month payment reduction" style="rounded=1;whiteSpace=wrap;html=1;fillColor=#f8cecc;strokeColor=#b85450;" parent="1" vertex="1">
          <mxGeometry x="780" y="220" width="120" height="40" as="geometry" />
        </mxCell>
        <mxCell id="TdXXtB4wiW-Buo-MOeaE-44" style="edgeStyle=orthogonalEdgeStyle;rounded=0;orthogonalLoop=1;jettySize=auto;html=1;entryX=0.5;entryY=0;entryDx=0;entryDy=0;" parent="1" source="TdXXtB4wiW-Buo-MOeaE-13" target="TdXXtB4wiW-Buo-MOeaE-28" edge="1">
          <mxGeometry relative="1" as="geometry" />
        </mxCell>
        <mxCell id="TdXXtB4wiW-Buo-MOeaE-45" style="edgeStyle=orthogonalEdgeStyle;rounded=0;orthogonalLoop=1;jettySize=auto;html=1;entryX=0.5;entryY=0;entryDx=0;entryDy=0;" parent="1" source="TdXXtB4wiW-Buo-MOeaE-13" target="TdXXtB4wiW-Buo-MOeaE-33" edge="1">
          <mxGeometry relative="1" as="geometry" />
        </mxCell>
        <mxCell id="TdXXtB4wiW-Buo-MOeaE-13" value="Duration reduction" style="rounded=1;whiteSpace=wrap;html=1;fillColor=#e1d5e7;strokeColor=#9673a6;" parent="1" vertex="1">
          <mxGeometry x="980" y="220" width="120" height="40" as="geometry" />
        </mxCell>
        <mxCell id="ocDLkI_R6EKWnr1p0tIY-1" style="edgeStyle=orthogonalEdgeStyle;rounded=0;orthogonalLoop=1;jettySize=auto;html=1;entryX=0;entryY=0.5;entryDx=0;entryDy=0;" edge="1" parent="1" source="TdXXtB4wiW-Buo-MOeaE-22" target="TdXXtB4wiW-Buo-MOeaE-83">
          <mxGeometry relative="1" as="geometry" />
        </mxCell>
        <mxCell id="TdXXtB4wiW-Buo-MOeaE-22" value="card" style="rounded=1;whiteSpace=wrap;html=1;fillColor=#fff2cc;strokeColor=#d6b656;" parent="1" vertex="1">
          <mxGeometry x="20" y="300" width="40" height="30" as="geometry" />
        </mxCell>
        <mxCell id="TdXXtB4wiW-Buo-MOeaE-58" style="edgeStyle=orthogonalEdgeStyle;rounded=0;orthogonalLoop=1;jettySize=auto;html=1;entryX=0.5;entryY=0;entryDx=0;entryDy=0;" parent="1" source="TdXXtB4wiW-Buo-MOeaE-23" target="TdXXtB4wiW-Buo-MOeaE-46" edge="1">
          <mxGeometry relative="1" as="geometry" />
        </mxCell>
        <mxCell id="TdXXtB4wiW-Buo-MOeaE-59" style="edgeStyle=orthogonalEdgeStyle;rounded=0;orthogonalLoop=1;jettySize=auto;html=1;entryX=0.5;entryY=0;entryDx=0;entryDy=0;" parent="1" source="TdXXtB4wiW-Buo-MOeaE-23" target="TdXXtB4wiW-Buo-MOeaE-47" edge="1">
          <mxGeometry relative="1" as="geometry" />
        </mxCell>
        <mxCell id="TdXXtB4wiW-Buo-MOeaE-23" value="account" style="rounded=1;whiteSpace=wrap;html=1;fillColor=#dae8fc;strokeColor=#6c8ebf;" parent="1" vertex="1">
          <mxGeometry x="80" y="300" width="60" height="30" as="geometry" />
        </mxCell>
        <mxCell id="ocDLkI_R6EKWnr1p0tIY-7" style="edgeStyle=orthogonalEdgeStyle;rounded=0;orthogonalLoop=1;jettySize=auto;html=1;entryX=1;entryY=0.75;entryDx=0;entryDy=0;" edge="1" parent="1" source="TdXXtB4wiW-Buo-MOeaE-24" target="ocDLkI_R6EKWnr1p0tIY-4">
          <mxGeometry relative="1" as="geometry">
            <Array as="points">
              <mxPoint x="220" y="675" />
            </Array>
          </mxGeometry>
        </mxCell>
        <mxCell id="TdXXtB4wiW-Buo-MOeaE-24" value="card" style="rounded=1;whiteSpace=wrap;html=1;fillColor=#fff2cc;strokeColor=#d6b656;" parent="1" vertex="1">
          <mxGeometry x="190" y="300" width="40" height="30" as="geometry" />
        </mxCell>
        <mxCell id="ocDLkI_R6EKWnr1p0tIY-11" style="edgeStyle=orthogonalEdgeStyle;rounded=0;orthogonalLoop=1;jettySize=auto;html=1;entryX=0;entryY=0.75;entryDx=0;entryDy=0;" edge="1" parent="1" source="TdXXtB4wiW-Buo-MOeaE-25" target="TdXXtB4wiW-Buo-MOeaE-70">
          <mxGeometry relative="1" as="geometry">
            <Array as="points">
              <mxPoint x="380" y="765" />
            </Array>
          </mxGeometry>
        </mxCell>
        <mxCell id="TdXXtB4wiW-Buo-MOeaE-25" value="card" style="rounded=1;whiteSpace=wrap;html=1;fillColor=#fff2cc;strokeColor=#d6b656;" parent="1" vertex="1">
          <mxGeometry x="350" y="300" width="40" height="30" as="geometry" />
        </mxCell>
        <mxCell id="ocDLkI_R6EKWnr1p0tIY-22" style="edgeStyle=orthogonalEdgeStyle;rounded=0;orthogonalLoop=1;jettySize=auto;html=1;entryX=0.25;entryY=0;entryDx=0;entryDy=0;strokeColor=#000000;" edge="1" parent="1" source="TdXXtB4wiW-Buo-MOeaE-26" target="ocDLkI_R6EKWnr1p0tIY-12">
          <mxGeometry relative="1" as="geometry">
            <Array as="points">
              <mxPoint x="580" y="360" />
              <mxPoint x="553" y="360" />
            </Array>
          </mxGeometry>
        </mxCell>
        <mxCell id="TdXXtB4wiW-Buo-MOeaE-26" value="card" style="rounded=1;whiteSpace=wrap;html=1;fillColor=#fff2cc;strokeColor=#d6b656;" parent="1" vertex="1">
          <mxGeometry x="560" y="300" width="40" height="30" as="geometry" />
        </mxCell>
        <mxCell id="TdXXtB4wiW-Buo-MOeaE-27" value="card" style="rounded=1;whiteSpace=wrap;html=1;fillColor=#fff2cc;strokeColor=#d6b656;" parent="1" vertex="1">
          <mxGeometry x="760" y="300" width="40" height="30" as="geometry" />
        </mxCell>
        <mxCell id="TdXXtB4wiW-Buo-MOeaE-28" value="card" style="rounded=1;whiteSpace=wrap;html=1;fillColor=#fff2cc;strokeColor=#d6b656;" parent="1" vertex="1">
          <mxGeometry x="990" y="300" width="40" height="30" as="geometry" />
        </mxCell>
        <mxCell id="TdXXtB4wiW-Buo-MOeaE-60" style="edgeStyle=orthogonalEdgeStyle;rounded=0;orthogonalLoop=1;jettySize=auto;html=1;entryX=0.5;entryY=0;entryDx=0;entryDy=0;" parent="1" source="TdXXtB4wiW-Buo-MOeaE-29" target="TdXXtB4wiW-Buo-MOeaE-48" edge="1">
          <mxGeometry relative="1" as="geometry" />
        </mxCell>
        <mxCell id="TdXXtB4wiW-Buo-MOeaE-61" style="edgeStyle=orthogonalEdgeStyle;rounded=0;orthogonalLoop=1;jettySize=auto;html=1;entryX=0.64;entryY=0;entryDx=0;entryDy=0;entryPerimeter=0;" parent="1" source="TdXXtB4wiW-Buo-MOeaE-29" target="TdXXtB4wiW-Buo-MOeaE-53" edge="1">
          <mxGeometry relative="1" as="geometry">
            <mxPoint x="334" y="450" as="targetPoint" />
            <Array as="points">
              <mxPoint x="270" y="360" />
              <mxPoint x="334" y="360" />
            </Array>
          </mxGeometry>
        </mxCell>
        <mxCell id="TdXXtB4wiW-Buo-MOeaE-29" value="account" style="rounded=1;whiteSpace=wrap;html=1;fillColor=#dae8fc;strokeColor=#6c8ebf;" parent="1" vertex="1">
          <mxGeometry x="240" y="300" width="60" height="30" as="geometry" />
        </mxCell>
        <mxCell id="TdXXtB4wiW-Buo-MOeaE-62" style="edgeStyle=orthogonalEdgeStyle;rounded=0;orthogonalLoop=1;jettySize=auto;html=1;entryX=0.5;entryY=0;entryDx=0;entryDy=0;" parent="1" source="TdXXtB4wiW-Buo-MOeaE-30" target="TdXXtB4wiW-Buo-MOeaE-49" edge="1">
          <mxGeometry relative="1" as="geometry" />
        </mxCell>
        <mxCell id="TdXXtB4wiW-Buo-MOeaE-63" style="edgeStyle=orthogonalEdgeStyle;rounded=0;orthogonalLoop=1;jettySize=auto;html=1;entryX=0.62;entryY=-0.06;entryDx=0;entryDy=0;entryPerimeter=0;" parent="1" source="TdXXtB4wiW-Buo-MOeaE-30" target="TdXXtB4wiW-Buo-MOeaE-54" edge="1">
          <mxGeometry relative="1" as="geometry">
            <Array as="points">
              <mxPoint x="444" y="360" />
              <mxPoint x="502" y="360" />
            </Array>
          </mxGeometry>
        </mxCell>
        <mxCell id="TdXXtB4wiW-Buo-MOeaE-30" value="account" style="rounded=1;whiteSpace=wrap;html=1;fillColor=#dae8fc;strokeColor=#6c8ebf;" parent="1" vertex="1">
          <mxGeometry x="414" y="300" width="60" height="30" as="geometry" />
        </mxCell>
        <mxCell id="TdXXtB4wiW-Buo-MOeaE-64" style="edgeStyle=orthogonalEdgeStyle;rounded=0;orthogonalLoop=1;jettySize=auto;html=1;" parent="1" source="TdXXtB4wiW-Buo-MOeaE-31" target="TdXXtB4wiW-Buo-MOeaE-50" edge="1">
          <mxGeometry relative="1" as="geometry" />
        </mxCell>
        <mxCell id="TdXXtB4wiW-Buo-MOeaE-65" style="edgeStyle=orthogonalEdgeStyle;rounded=0;orthogonalLoop=1;jettySize=auto;html=1;entryX=0.82;entryY=-0.04;entryDx=0;entryDy=0;entryPerimeter=0;" parent="1" source="TdXXtB4wiW-Buo-MOeaE-31" target="TdXXtB4wiW-Buo-MOeaE-55" edge="1">
          <mxGeometry relative="1" as="geometry">
            <Array as="points">
              <mxPoint x="650" y="360" />
              <mxPoint x="682" y="360" />
            </Array>
          </mxGeometry>
        </mxCell>
        <mxCell id="TdXXtB4wiW-Buo-MOeaE-31" value="account" style="rounded=1;whiteSpace=wrap;html=1;fillColor=#dae8fc;strokeColor=#6c8ebf;" parent="1" vertex="1">
          <mxGeometry x="620" y="300" width="60" height="30" as="geometry" />
        </mxCell>
        <mxCell id="TdXXtB4wiW-Buo-MOeaE-66" style="edgeStyle=orthogonalEdgeStyle;rounded=0;orthogonalLoop=1;jettySize=auto;html=1;entryX=0.5;entryY=0;entryDx=0;entryDy=0;" parent="1" source="TdXXtB4wiW-Buo-MOeaE-32" target="TdXXtB4wiW-Buo-MOeaE-51" edge="1">
          <mxGeometry relative="1" as="geometry" />
        </mxCell>
        <mxCell id="TdXXtB4wiW-Buo-MOeaE-67" style="edgeStyle=orthogonalEdgeStyle;rounded=0;orthogonalLoop=1;jettySize=auto;html=1;entryX=0.75;entryY=0;entryDx=0;entryDy=0;" parent="1" source="TdXXtB4wiW-Buo-MOeaE-32" target="TdXXtB4wiW-Buo-MOeaE-56" edge="1">
          <mxGeometry relative="1" as="geometry">
            <Array as="points">
              <mxPoint x="840" y="360" />
              <mxPoint x="895" y="360" />
            </Array>
          </mxGeometry>
        </mxCell>
        <mxCell id="TdXXtB4wiW-Buo-MOeaE-32" value="account" style="rounded=1;whiteSpace=wrap;html=1;fillColor=#dae8fc;strokeColor=#6c8ebf;" parent="1" vertex="1">
          <mxGeometry x="810" y="300" width="60" height="30" as="geometry" />
        </mxCell>
        <mxCell id="TdXXtB4wiW-Buo-MOeaE-68" style="edgeStyle=orthogonalEdgeStyle;rounded=0;orthogonalLoop=1;jettySize=auto;html=1;entryX=0.5;entryY=0;entryDx=0;entryDy=0;" parent="1" source="TdXXtB4wiW-Buo-MOeaE-33" target="TdXXtB4wiW-Buo-MOeaE-52" edge="1">
          <mxGeometry relative="1" as="geometry" />
        </mxCell>
        <mxCell id="TdXXtB4wiW-Buo-MOeaE-69" style="edgeStyle=orthogonalEdgeStyle;rounded=0;orthogonalLoop=1;jettySize=auto;html=1;entryX=0.83;entryY=-0.04;entryDx=0;entryDy=0;entryPerimeter=0;" parent="1" source="TdXXtB4wiW-Buo-MOeaE-33" target="TdXXtB4wiW-Buo-MOeaE-57" edge="1">
          <mxGeometry relative="1" as="geometry">
            <Array as="points">
              <mxPoint x="1080" y="360" />
              <mxPoint x="1143" y="360" />
            </Array>
          </mxGeometry>
        </mxCell>
        <mxCell id="TdXXtB4wiW-Buo-MOeaE-33" value="account" style="rounded=1;whiteSpace=wrap;html=1;fillColor=#dae8fc;strokeColor=#6c8ebf;" parent="1" vertex="1">
          <mxGeometry x="1050" y="300" width="60" height="30" as="geometry" />
        </mxCell>
        <mxCell id="TdXXtB4wiW-Buo-MOeaE-84" style="edgeStyle=orthogonalEdgeStyle;rounded=0;orthogonalLoop=1;jettySize=auto;html=1;entryX=0.599;entryY=-0.043;entryDx=0;entryDy=0;entryPerimeter=0;" parent="1" source="TdXXtB4wiW-Buo-MOeaE-46" target="ocDLkI_R6EKWnr1p0tIY-4" edge="1">
          <mxGeometry relative="1" as="geometry">
            <Array as="points">
              <mxPoint x="95" y="535" />
              <mxPoint x="102" y="535" />
            </Array>
          </mxGeometry>
        </mxCell>
        <mxCell id="TdXXtB4wiW-Buo-MOeaE-46" value="pay with same account" style="rounded=1;whiteSpace=wrap;html=1;fillColor=#d5e8d4;strokeColor=#82b366;" parent="1" vertex="1">
          <mxGeometry x="50" y="400" width="90" height="40" as="geometry" />
        </mxCell>
        <mxCell id="ocDLkI_R6EKWnr1p0tIY-6" style="edgeStyle=orthogonalEdgeStyle;rounded=0;orthogonalLoop=1;jettySize=auto;html=1;entryX=0.75;entryY=0;entryDx=0;entryDy=0;" edge="1" parent="1" source="TdXXtB4wiW-Buo-MOeaE-47" target="ocDLkI_R6EKWnr1p0tIY-4">
          <mxGeometry relative="1" as="geometry" />
        </mxCell>
        <mxCell id="TdXXtB4wiW-Buo-MOeaE-47" value="pay with different account" style="rounded=1;whiteSpace=wrap;html=1;fillColor=#e1d5e7;strokeColor=#9673a6;" parent="1" vertex="1">
          <mxGeometry x="110" y="460" width="100" height="50" as="geometry" />
        </mxCell>
        <mxCell id="TdXXtB4wiW-Buo-MOeaE-80" style="edgeStyle=orthogonalEdgeStyle;rounded=0;orthogonalLoop=1;jettySize=auto;html=1;entryX=0;entryY=0.25;entryDx=0;entryDy=0;startArrow=none;" parent="1" source="ocDLkI_R6EKWnr1p0tIY-16" target="TdXXtB4wiW-Buo-MOeaE-70" edge="1">
          <mxGeometry relative="1" as="geometry">
            <Array as="points">
              <mxPoint x="240" y="735" />
            </Array>
          </mxGeometry>
        </mxCell>
        <mxCell id="TdXXtB4wiW-Buo-MOeaE-48" value="pay with same account" style="rounded=1;whiteSpace=wrap;html=1;fillColor=#d5e8d4;strokeColor=#82b366;" parent="1" vertex="1">
          <mxGeometry x="225" y="400" width="90" height="40" as="geometry" />
        </mxCell>
        <mxCell id="TdXXtB4wiW-Buo-MOeaE-81" style="edgeStyle=orthogonalEdgeStyle;rounded=0;orthogonalLoop=1;jettySize=auto;html=1;entryX=0.067;entryY=0;entryDx=0;entryDy=0;entryPerimeter=0;startArrow=none;" parent="1" source="ocDLkI_R6EKWnr1p0tIY-19" target="TdXXtB4wiW-Buo-MOeaE-70" edge="1">
          <mxGeometry relative="1" as="geometry" />
        </mxCell>
        <mxCell id="TdXXtB4wiW-Buo-MOeaE-49" value="pay with same account" style="rounded=1;whiteSpace=wrap;html=1;fillColor=#d5e8d4;strokeColor=#82b366;" parent="1" vertex="1">
          <mxGeometry x="390" y="400" width="90" height="40" as="geometry" />
        </mxCell>
        <mxCell id="TdXXtB4wiW-Buo-MOeaE-50" value="pay with same account" style="rounded=1;whiteSpace=wrap;html=1;fillColor=#d5e8d4;strokeColor=#82b366;" parent="1" vertex="1">
          <mxGeometry x="560" y="400" width="90" height="40" as="geometry" />
        </mxCell>
        <mxCell id="TdXXtB4wiW-Buo-MOeaE-87" style="edgeStyle=orthogonalEdgeStyle;rounded=0;orthogonalLoop=1;jettySize=auto;html=1;entryX=1;entryY=0.5;entryDx=0;entryDy=0;" parent="1" source="TdXXtB4wiW-Buo-MOeaE-51" target="TdXXtB4wiW-Buo-MOeaE-70" edge="1">
          <mxGeometry relative="1" as="geometry">
            <Array as="points">
              <mxPoint x="720" y="420" />
              <mxPoint x="720" y="750" />
            </Array>
          </mxGeometry>
        </mxCell>
        <mxCell id="TdXXtB4wiW-Buo-MOeaE-51" value="pay with same account" style="rounded=1;whiteSpace=wrap;html=1;fillColor=#d5e8d4;strokeColor=#82b366;" parent="1" vertex="1">
          <mxGeometry x="760" y="400" width="90" height="40" as="geometry" />
        </mxCell>
        <mxCell id="TdXXtB4wiW-Buo-MOeaE-52" value="pay with same account" style="rounded=1;whiteSpace=wrap;html=1;fillColor=#d5e8d4;strokeColor=#82b366;" parent="1" vertex="1">
          <mxGeometry x="1010" y="400" width="90" height="40" as="geometry" />
        </mxCell>
        <mxCell id="TdXXtB4wiW-Buo-MOeaE-78" style="edgeStyle=orthogonalEdgeStyle;rounded=0;orthogonalLoop=1;jettySize=auto;html=1;entryX=0;entryY=0.5;entryDx=0;entryDy=0;" parent="1" source="TdXXtB4wiW-Buo-MOeaE-53" target="TdXXtB4wiW-Buo-MOeaE-70" edge="1">
          <mxGeometry relative="1" as="geometry" />
        </mxCell>
        <mxCell id="TdXXtB4wiW-Buo-MOeaE-53" value="pay with different account" style="rounded=1;whiteSpace=wrap;html=1;fillColor=#e1d5e7;strokeColor=#9673a6;" parent="1" vertex="1">
          <mxGeometry x="270" y="470" width="100" height="50" as="geometry" />
        </mxCell>
        <mxCell id="TdXXtB4wiW-Buo-MOeaE-77" style="edgeStyle=orthogonalEdgeStyle;rounded=0;orthogonalLoop=1;jettySize=auto;html=1;entryX=0.5;entryY=0;entryDx=0;entryDy=0;" parent="1" source="TdXXtB4wiW-Buo-MOeaE-54" target="TdXXtB4wiW-Buo-MOeaE-70" edge="1">
          <mxGeometry relative="1" as="geometry" />
        </mxCell>
        <mxCell id="TdXXtB4wiW-Buo-MOeaE-54" value="pay with different account" style="rounded=1;whiteSpace=wrap;html=1;fillColor=#e1d5e7;strokeColor=#9673a6;" parent="1" vertex="1">
          <mxGeometry x="440" y="480" width="100" height="50" as="geometry" />
        </mxCell>
        <mxCell id="TdXXtB4wiW-Buo-MOeaE-76" style="edgeStyle=orthogonalEdgeStyle;rounded=0;orthogonalLoop=1;jettySize=auto;html=1;entryX=0.325;entryY=-0.017;entryDx=0;entryDy=0;entryPerimeter=0;" parent="1" source="TdXXtB4wiW-Buo-MOeaE-55" target="TdXXtB4wiW-Buo-MOeaE-71" edge="1">
          <mxGeometry relative="1" as="geometry">
            <Array as="points">
              <mxPoint x="770" y="505" />
            </Array>
          </mxGeometry>
        </mxCell>
        <mxCell id="TdXXtB4wiW-Buo-MOeaE-55" value="pay with different account" style="rounded=1;whiteSpace=wrap;html=1;fillColor=#e1d5e7;strokeColor=#9673a6;" parent="1" vertex="1">
          <mxGeometry x="600" y="480" width="100" height="50" as="geometry" />
        </mxCell>
        <mxCell id="TdXXtB4wiW-Buo-MOeaE-75" style="edgeStyle=orthogonalEdgeStyle;rounded=0;orthogonalLoop=1;jettySize=auto;html=1;entryX=0.6;entryY=-0.033;entryDx=0;entryDy=0;entryPerimeter=0;" parent="1" source="TdXXtB4wiW-Buo-MOeaE-56" target="TdXXtB4wiW-Buo-MOeaE-71" edge="1">
          <mxGeometry relative="1" as="geometry">
            <Array as="points">
              <mxPoint x="880" y="640" />
              <mxPoint x="802" y="640" />
            </Array>
          </mxGeometry>
        </mxCell>
        <mxCell id="TdXXtB4wiW-Buo-MOeaE-56" value="pay with different account" style="rounded=1;whiteSpace=wrap;html=1;fillColor=#e1d5e7;strokeColor=#9673a6;" parent="1" vertex="1">
          <mxGeometry x="820" y="480" width="100" height="50" as="geometry" />
        </mxCell>
        <mxCell id="TdXXtB4wiW-Buo-MOeaE-74" style="edgeStyle=orthogonalEdgeStyle;rounded=0;orthogonalLoop=1;jettySize=auto;html=1;entryX=1;entryY=0.617;entryDx=0;entryDy=0;entryPerimeter=0;" parent="1" source="TdXXtB4wiW-Buo-MOeaE-57" target="TdXXtB4wiW-Buo-MOeaE-71" edge="1">
          <mxGeometry relative="1" as="geometry">
            <Array as="points">
              <mxPoint x="1040" y="505" />
              <mxPoint x="1040" y="757" />
            </Array>
          </mxGeometry>
        </mxCell>
        <mxCell id="TdXXtB4wiW-Buo-MOeaE-57" value="pay with different account" style="rounded=1;whiteSpace=wrap;html=1;fillColor=#e1d5e7;strokeColor=#9673a6;" parent="1" vertex="1">
          <mxGeometry x="1060" y="480" width="100" height="50" as="geometry" />
        </mxCell>
        <mxCell id="ocDLkI_R6EKWnr1p0tIY-9" style="edgeStyle=orthogonalEdgeStyle;rounded=0;orthogonalLoop=1;jettySize=auto;html=1;entryX=0.5;entryY=1;entryDx=0;entryDy=0;" edge="1" parent="1" source="TdXXtB4wiW-Buo-MOeaE-70" target="TdXXtB4wiW-Buo-MOeaE-83">
          <mxGeometry relative="1" as="geometry">
            <Array as="points">
              <mxPoint x="490" y="810" />
              <mxPoint x="55" y="810" />
            </Array>
          </mxGeometry>
        </mxCell>
        <mxCell id="TdXXtB4wiW-Buo-MOeaE-70" value="Confirm with OTP" style="rounded=1;whiteSpace=wrap;html=1;fillColor=#60a917;fontColor=#ffffff;strokeColor=#2D7600;" parent="1" vertex="1">
          <mxGeometry x="430" y="720" width="120" height="60" as="geometry" />
        </mxCell>
        <mxCell id="ocDLkI_R6EKWnr1p0tIY-30" style="edgeStyle=elbowEdgeStyle;rounded=0;orthogonalLoop=1;jettySize=auto;elbow=vertical;html=1;entryX=0.5;entryY=0;entryDx=0;entryDy=0;strokeColor=#000000;" edge="1" parent="1" source="TdXXtB4wiW-Buo-MOeaE-71" target="ocDLkI_R6EKWnr1p0tIY-29">
          <mxGeometry relative="1" as="geometry" />
        </mxCell>
        <mxCell id="TdXXtB4wiW-Buo-MOeaE-71" value="Confirm with ASAN" style="rounded=1;whiteSpace=wrap;html=1;fillColor=#d80073;fontColor=#ffffff;strokeColor=#A50040;" parent="1" vertex="1">
          <mxGeometry x="730" y="720" width="120" height="60" as="geometry" />
        </mxCell>
        <mxCell id="TdXXtB4wiW-Buo-MOeaE-83" value="Confirm Page&lt;br&gt;(Qebz)" style="rounded=1;whiteSpace=wrap;html=1;fillColor=#0050ef;fontColor=#ffffff;strokeColor=#001DBC;" parent="1" vertex="1">
          <mxGeometry x="20" y="730" width="70" height="60" as="geometry" />
        </mxCell>
        <mxCell id="ocDLkI_R6EKWnr1p0tIY-5" style="edgeStyle=orthogonalEdgeStyle;rounded=0;orthogonalLoop=1;jettySize=auto;html=1;entryX=0.5;entryY=0;entryDx=0;entryDy=0;" edge="1" parent="1" source="ocDLkI_R6EKWnr1p0tIY-4" target="TdXXtB4wiW-Buo-MOeaE-83">
          <mxGeometry relative="1" as="geometry" />
        </mxCell>
        <mxCell id="ocDLkI_R6EKWnr1p0tIY-4" value="Confirm with OTP" style="rounded=1;whiteSpace=wrap;html=1;fillColor=#60a917;fontColor=#ffffff;strokeColor=#2D7600;" vertex="1" parent="1">
          <mxGeometry x="30" y="630" width="120" height="60" as="geometry" />
        </mxCell>
        <mxCell id="ocDLkI_R6EKWnr1p0tIY-12" value="Confirm Page&lt;br&gt;(Qebz)" style="rounded=1;whiteSpace=wrap;html=1;fillColor=#0050ef;fontColor=#ffffff;strokeColor=#001DBC;" vertex="1" parent="1">
          <mxGeometry x="535" y="550" width="70" height="60" as="geometry" />
        </mxCell>
        <mxCell id="ocDLkI_R6EKWnr1p0tIY-15" value="Writeoff" style="text;html=1;strokeColor=#6c8ebf;fillColor=#dae8fc;align=center;verticalAlign=middle;whiteSpace=wrap;rounded=0;rotation=-90;" vertex="1" parent="1">
          <mxGeometry x="65" y="530" width="60" height="30" as="geometry" />
        </mxCell>
        <mxCell id="ocDLkI_R6EKWnr1p0tIY-16" value="Writeoff" style="text;html=1;strokeColor=#6c8ebf;fillColor=#dae8fc;align=center;verticalAlign=middle;whiteSpace=wrap;rounded=0;rotation=-90;" vertex="1" parent="1">
          <mxGeometry x="210" y="490" width="60" height="30" as="geometry" />
        </mxCell>
        <mxCell id="ocDLkI_R6EKWnr1p0tIY-18" value="" style="edgeStyle=orthogonalEdgeStyle;rounded=0;orthogonalLoop=1;jettySize=auto;html=1;endArrow=none;entryX=1;entryY=0.25;entryDx=0;entryDy=0;" edge="1" parent="1" source="TdXXtB4wiW-Buo-MOeaE-48" target="ocDLkI_R6EKWnr1p0tIY-16">
          <mxGeometry relative="1" as="geometry">
            <Array as="points">
              <mxPoint x="270" y="460" />
              <mxPoint x="232" y="460" />
            </Array>
            <mxPoint x="240" y="440" as="sourcePoint" />
            <mxPoint x="240" y="460" as="targetPoint" />
          </mxGeometry>
        </mxCell>
        <mxCell id="ocDLkI_R6EKWnr1p0tIY-19" value="Writeoff" style="text;html=1;strokeColor=#6c8ebf;fillColor=#dae8fc;align=center;verticalAlign=middle;whiteSpace=wrap;rounded=0;rotation=-90;" vertex="1" parent="1">
          <mxGeometry x="405" y="570" width="60" height="30" as="geometry" />
        </mxCell>
        <mxCell id="ocDLkI_R6EKWnr1p0tIY-20" value="" style="edgeStyle=orthogonalEdgeStyle;rounded=0;orthogonalLoop=1;jettySize=auto;html=1;entryX=1;entryY=0.5;entryDx=0;entryDy=0;endArrow=none;" edge="1" parent="1" source="TdXXtB4wiW-Buo-MOeaE-49" target="ocDLkI_R6EKWnr1p0tIY-19">
          <mxGeometry relative="1" as="geometry">
            <mxPoint x="435" y="440" as="sourcePoint" />
            <mxPoint x="438.03999999999996" y="720" as="targetPoint" />
          </mxGeometry>
        </mxCell>
        <mxCell id="ocDLkI_R6EKWnr1p0tIY-26" style="edgeStyle=orthogonalEdgeStyle;rounded=0;orthogonalLoop=1;jettySize=auto;html=1;exitX=0;exitY=0.5;exitDx=0;exitDy=0;entryX=0.5;entryY=0;entryDx=0;entryDy=0;strokeColor=#000000;" edge="1" parent="1" source="ocDLkI_R6EKWnr1p0tIY-23" target="ocDLkI_R6EKWnr1p0tIY-12">
          <mxGeometry relative="1" as="geometry" />
        </mxCell>
        <mxCell id="ocDLkI_R6EKWnr1p0tIY-27" style="rounded=0;orthogonalLoop=1;jettySize=auto;html=1;exitX=0.5;exitY=1;exitDx=0;exitDy=0;strokeColor=#000000;entryX=1;entryY=0.5;entryDx=0;entryDy=0;edgeStyle=elbowEdgeStyle;elbow=vertical;" edge="1" parent="1" source="TdXXtB4wiW-Buo-MOeaE-50" target="ocDLkI_R6EKWnr1p0tIY-23">
          <mxGeometry relative="1" as="geometry">
            <mxPoint x="570" y="460" as="targetPoint" />
          </mxGeometry>
        </mxCell>
        <mxCell id="ocDLkI_R6EKWnr1p0tIY-23" value="Writeoff" style="text;html=1;strokeColor=#6c8ebf;fillColor=#dae8fc;align=center;verticalAlign=middle;whiteSpace=wrap;rounded=0;rotation=-90;" vertex="1" parent="1">
          <mxGeometry x="545" y="480" width="60" height="30" as="geometry" />
        </mxCell>
        <mxCell id="ocDLkI_R6EKWnr1p0tIY-29" value="Authorization" style="rounded=1;whiteSpace=wrap;html=1;fillColor=#d5e8d4;strokeColor=#82b366;" vertex="1" parent="1">
          <mxGeometry x="730" y="860" width="120" height="60" as="geometry" />
        </mxCell>
      </root>
    </mxGraphModel>
  </diagram>
</mxfile>
